<svg version="1.1" xmlns="http://www.w3.org/2000/svg" xmlns:xlink="http://www.w3.org/1999/xlink" width="1560" height="804"><defs/><g><path paint-order="fill stroke markers" d=" M 910 365.7383284537504 L 911 368.05488908936223 L 912 370.4484082215173 L 913 372.91345939471313 L 914 375.4444539799226 L 915 378.0356538448246 L 916 380.68118436298624 L 917 383.3750477324915 L 918 386.1111365738321 L 919 388.88324777622074 L 920 391.6850965609475 L 921 394.5103307298826 L 922 397.3525450668355 L 923 400.2052958591069 L 924 403.0621155063248 L 925 405.91652718343073 L 926 408.7620595245841 L 927 411.59226129469 L 928 414.4007160152828 L 929 417.1810565116184 L 930 419.92697934798065 L 931 422.63225911848895 L 932 425.29076256099415 L 933 427.8964624620782 L 934 430.4434513216187 L 935 432.92595474595316 L 936 435.33834453926494 L 937 437.67515146352343 L 938 439.93107763803823 L 939 442.101008550527 L 940 444.18002465245485 L 941 446.1634125123678 L 942 448.04667550192426 L 943 449.8255439904068 L 944 451.4959850245927 L 945 453.0542114720471 L 946 454.49669060710016 L 947 455.8201521200503 L 948 457.02159553143156 L 949 458.0982969945351 L 950 459.04781547076686 L 951 459.86799826383503 L 952 460.55698590022666 L 953 461.11321634490275 L 954 461.5354285426599 L 955 461.82266527712443 L 956 461.9742753409019 L 957 461.98991501195815 L 958 461.86954883288746 L 959 461.6134496912995 L 960 461.2221982011434 L 961 460.69668138637195 L 962 460.03809066992886 L 963 459.24791917262075 L 964 458.3279583279944 L 965 457.2802938208978 L 966 456.10730085892857 L 967 454.8116387874944 L 968 453.3962450606904 L 969 451.86432858166324 L 970 450.2193624275633 L 971 448.4650759755725 L 972 446.6054464478665 L 973 444.64468989467224 L 974 442.5872516358721 L 975 440.43779618281576 L 976 438.2011966631977 L 977 435.8825237729668 L 978 433.48703428032445 L 979 431.02015910786514 L 980 428.48749101988864 L 981 425.8947719427885 L 982 423.2478799472737 L 983 420.5528159219257 L 984 417.8156899683155 L 985 415.0427075485129 L 986 412.24015541640597 L 987 409.41438736471343 L 988 406.5718098200168 L 989 403.7188673184597 L 990 400.8620278950469 L 991 398.00776841967286 L 992 395.1625599131134 L 993 392.33285287628513 L 994 389.5250626660197 L 995 386.7455549505215 L 996 384.00063127747 L 997 381.29651478749906 L 998 378.6393361054302 L 999 376.0351194412588 L 1000 373.4897689323922 L 1001 371.0090552581155 L 1002 368.5986025566205 L 1003 366.2638756742708 L 1004 364.0101677759983 L 1005 361.8425883449322 L 1006 359.7660515984563 L 1007 357.78526534696675 L 1008 355.90472032058 L 1009 354.128679987997 L 1010 352.46117089059993 L 1011 350.90597351369723 L 1012 349.466613715616 L 1013 348.14635473406736 L 1014 346.9481897879141 L 1015 345.87483529110756 L 1016 344.92872469418376 L 1017 344.11200296727657 L 1018 343.4265217371599 L 1019 342.8738350893399 L 1020 342.45519604471815 L 1021 342.17155371881097 L 1022 342.02355116996677 L 1023 342.01152394145925 L 1024 342.1354993007623 L 1025 342.39519617773055 L 1026 342.790025801826 L 1027 343.31909303694687 L 1028 343.9811984108304 L 1029 344.7748408344317 L 1030 345.6982210051095 L 1031 346.7492454859072 L 1032 347.9255314516787 L 1033 349.22441209129835 L 1034 350.64294265371007 L 1035 352.1779071241044 L 1036 353.82582551509284 L 1037 355.5829617563426 L 1038 357.445332164793 L 1039 359.40871447624124 L 1040 361.4686574178307 L 1041 363.62049079973093 L 1042 365.8593361031386 L 1043 368.18011754058557 L 1044 370.57757356348895 L 1045 373.0462687908432 L 1046 375.58060633202115 L 1047 378.17484047573487 L 1048 380.82308971640094 L 1049 383.5193500883644 L 1050 386.25750877776426 L 1051 389.03135798116756 L 1052 391.8346089795623 L 1053 394.6609063957984 L 1054 397.5038426031476 L 1055 400.35697225232724 L 1056 403.2138268840399 L 1057 406.06792959391356 L 1058 408.9128097165808 L 1059 411.74201749562064 L 1060 414.5491387060897 L 1061 417.327809196505 L 1062 420.07172931729616 L 1063 422.7746782030298 L 1064 425.4305278760111 L 1065 428.0332571393029 L 1066 430.5769652276502 L 1067 433.05588518537525 L 1068 435.46439694090054 L 1069 437.79704004827056 L 1070 440.04852606677247 L 1071 442.21375055060247 L 1072 444.28780462138326 L 1073 446.2659860973053 L 1074 448.1438101536568 L 1075 449.91701949057074 L 1076 451.58159398494405 L 1077 453.1337598046386 L 1078 454.56999796430864 L 1079 455.88705230344993 L 1080 457.0819368685902 L 1081 458.1519426828776 L 1082 459.0946438877263 L 1083 459.907903242589 L 1084 460.58987697039254 L 1085 461.1390189376475 L 1086 461.5540841597582 L 1087 461.8341316235829 L 1088 461.97852642084774 L 1089 461.9869411875757 L 1090 461.8593568462685 L 1091 461.596062649158 L 1092 461.1976555224291 L 1093 460.66503871290195 L 1094 459.99941974023983 L 1095 459.2023076593265 L 1096 458.27550963902036 L 1097 457.2211268650391 L 1098 456.04154977626774 L 1099 454.73945264528516 L 1100 453.31778751540133 L 1101 451.7797775079445 L 1102 450.12890951497906 L 1103 448.3689262940127 L 1104 446.5038179826238 L 1105 444.5378130522376 L 1106 442.4753687215699 L 1107 440.3211608514623 L 1108 438.080073344029 L 1109 435.75718707013914 L 1110 433.3577683503467 L 1111 430.8872570153748 L 1112 428.35125407323187 L 1113 425.75550901091003 L 1114 423.10590675946594 L 1115 420.40845435202607 L 1116 417.6692673049689 L 1117 414.89455575316407 L 1118 412.09061037069137 L 1119 409.263788108972 L 1120 406.42049778463365 L 1121 403.56718554979517 L 1122 400.71032027770053 L 1123 397.8563788968469 L 1124 395.01183170684345 L 1125 392.1831277093062 L 1126 389.37667998703114 L 1127 386.5988511646073 L 1128 383.8559389834197 L 1129 381.1541620237581 L 1130 378.49964560638887 L 1131 375.8984079055669 L 1132 373.35634630495673 L 1133 370.87922402741077 L 1134 368.472657068903 L 1135 366.1421014662529 L 1136 363.8928409274963 L 1137 361.7299748529514 L 1138 359.65840677413934 L 1139 357.68283323676394 L 1140 355.8077331529626 L 1141 354.03735764695995 L 1142 352.3757204171538 L 1143 350.82658863647595 L 1144 349.3934744116659 L 1145 348.0796268208131 L 1146 346.88802454722645 L 1147 345.82136912632535 L 1148 344.8820788208679 L 1149 344.0722831383966 L 1150 343.39381800333666 L 1151 342.8482215946878 L 1152 342.4367308587497 L 1153 342.16027870478445 L 1154 342.0194918899766 L 1155 342.0146895984828 L 1156 342.1458827177953 L 1157 342.4127738140585 L 1158 342.8147578063944 L 1159 343.35092333870926 L 1160 344.02005484587 L 1161 344.8206353095665 L 1162 345.7508496976135 L 1163 346.80858907889075 L 1164 347.9914554045976 L 1165 349.29676694497675 L 1166 350.721564369186 L 1167 352.2626174545301 L 1168 353.9164324098459 L 1169 355.67925979643326 L 1170 357.54710302857825 L 1171 359.5157274343918 L 1172 361.58066985642824 L 1173 363.7372487703088 L 1174 365.9805748984197 L 1175 368.3055622946126 L 1176 370.7069398747853 L 1177 373.1792633671926 L 1178 375.71692765540246 L 1179 378.3141794859098 L 1180 380.9651305115953 L 1181 383.6637706414666 L 1182 386.4039816664044 L 1183 389.17955113003404 L 1184 391.98418641326344 L 1185 394.81152900056776 L 1186 397.655168895664 L 1187 400.50865915390733 L 1188 403.3655304984472 L 1189 406.2193059870211 L 1190 409.0635156961198 L 1191 411.89171138924735 L 1192 414.69748113600605 L 1193 417.4744638488774 L 1194 420.216363704728 L 1195 422.9169644183584 L 1196 425.570143335721 L 1197 428.1698853148695 L 1198 430.71029636315626 L 1199 433.1856169997711 L 1200 435.5902353133219 L 1201 437.91869968484986 L 1202 440.1657311474447 L 1203 442.3262353544265 L 1204 444.39531412897213 L 1205 446.3682765689909 L 1206 448.24064968208336 L 1207 450.00818852646256 L 1208 451.66688583485563 L 1209 453.21298109955853 L 1210 454.6429690980555 L 1211 455.95360783986536 L 1212 457.14192591660674 L 1213 458.2052292386107 L 1214 459.141107142815 L 1215 459.94743785808566 L 1216 460.62239331558203 L 1217 461.1644432932526 L 1218 461.5723588850722 L 1219 461.8452152871494 L 1220 461.9823938943916 L 1221 461.9835837029727 L 1222 461.84878201542386 L 1223 461.57829444674906 L 1224 461.1727342315515 L 1225 460.6330208337415 L 1226 459.9603778619788 L 1227 459.15633029557324 L 1228 458.22270102713617 L 1229 457.1616067298169 L 1230 455.97545305849866 L 1231 454.6669291958282 L 1232 453.2390017554494 L 1233 451.69490805625816 L 1234 450.03814878293144 L 1235 448.27248004936536 L 1236 446.40190488302085 L 1237 444.43066414947754 L 1238 442.3632269377773 L 1239 440.2042804283483 L 1240 437.95871926648783 L 1241 435.63163446549044 L 1242 433.2283018645795 L 1243 430.7541701678165 L 1244 428.2148485910943 L 1245 425.6160941452332 L 1246 422.96379858399825 L 1247 420.2639750466408 L 1248 417.52274442523515 L 1249 414.7463214877308 L 1250 411.9410007881675 L 1251 409.1131423960102 L 1252 406.2691574769445 L 1253 403.4154937578366 L 1254 400.55862090879623 L 1255 397.7050158754986 L 1256 394.8611481950042 L 1257 392.03346532838225 L 1258 389.22837804337667 L 1259 386.4522458802676 L 1260 383.711362733867 L 1261 381.0119425843476 L 1262 378.36010540924616 L 1263 375.76186330858457 L 1264 373.2231068745684 L 1265 370.7495918367557 L 1266 368.3469260129857 L 1267 366.0205565956375 L 1268 363.77575780205757 L 1269 361.61761891713945 L 1270 359.551032755179 L 1271 357.5806845671509 L 1272 355.71104141856677 L 1273 353.94634206198646 L 1274 352.2905873271527 L 1275 350.7475310505268 L 1276 349.3206715647982 L 1277 348.01324376765433 L 1278 346.8282117877995 L 1279 345.7682622648429 L 1280 344.8357982582981 L 1281 344.03293379949645 L 1282 343.3614890987723 L 1283 342.82298641878145 L 1284 342.4186466233101 L 1285 342.14938640940005 L 1286 342.01581622906286 L 1287 342.01823890529687 L 1288 342.15664894554317 L 1289 342.4307325541381 L 1290 342.8398683437339 L 1291 343.3831287440733 L 1292 344.05928210492726 L 1293 344.86679548842346 L 1294 345.8038381444404 L 1295 346.86828566118277 L 1296 348.05772478153256 L 1297 349.36945887425225 L 1298 350.8005140476408 L 1299 352.34764589177655 L 1300 354.0073468340677 L 1301 355.77585409142625 L 1302 357.64915820104665 L 1303 359.6230121104377 L 1304 361.69294080610865 L 1305 363.8542514590754 L 1306 366.10204406418325 L 1307 368.4312225491331 L 1308 370.83650632801437 L 1309 373.3124422731633 L 1310 375.8534170781923 L 1311 378.4536699841739 L 1312 381.10730584011486 L 1313 383.80830846812273 L 1314 386.5505543029516 L 1315 389.3278262750174 L 1316 392.13382790539424 L 1317 394.96219758084965 L 1318 397.80652297654285 L 1319 400.6603555936994 L 1320 403.51722537929146 L 1321 406.3706553945908 L 1322 409.21417649932647 L 1323 412.0413420181684 L 1324 414.8457423562742 L 1325 417.6210195307723 L 1326 420.36088158523427 L 1327 423.0591168544506 L 1328 425.7096080471815 L 1329 428.3063461149411 L 1330 430.84344387538636 L 1331 433.3151493594114 L 1332 435.7158588517001 L 1333 438.0401295951592 L 1334 440.28269213044234 L 1335 442.43846224257686 L 1336 444.5025524876201 L 1337 446.4702832732024 L 1338 448.3371934678448 L 1339 450.09905051498987 L 1340 451.7518600288241 L 1341 453.2918748501291 L 1342 454.7156035416372 L 1343 456.01981830362536 L 1344 457.2015622918074 L 1345 458.25815632092826 L 1346 459.18720493886656 L 1347 459.9866018574724 L 1348 460.6545347278293 L 1349 461.18948924911086 L 1350 461.5902526017218 L 1351 461.8559161969357 L 1352 461.9858777367981 L 1353 461.97984257962264 L 1354 461.8378244079873 L 1355 461.5601451977135 L 1356 461.14743448790034 L 1357 460.60062795366815 L 1358 459.92096528484694 L 1359 459.1099873754198 L 1360 458.16953283009144 L 1361 457.1017337959058 L 1362 455.909011128358 L 1363 454.59406890296395 L 1364 453.159888284727 L 1365 451.6097207694062 L 1366 449.9470808119014 L 1367 448.17573785847424 L 1368 446.2997078008663 L 1369 444.32324387168745 L 1370 442.2508270017226 L 1371 440.0871556610089 L 1372 437.837135206723 L 1373 435.50586676202124 L 1374 433.0986356510562 L 1375 430.6208994163772 L 1376 428.07827544588963 L 1377 425.4765282374177 L 1378 422.8215563297556 L 1379 420.11937892981985 L 1380 417.37612226623474 L 1381 414.5980057002793 L 1382 411.7913276256965 L 1383 408.9624511893167 L 1384 406.11778986488144 L 1385 403.2637929127635 L 1386 400.406930758562 L 1387 397.5536803237045 L 1388 394.7105103413262 L 1389 391.8838666907134 L 1390 389.08015778355536 L 1391 386.3057400351497 L 1392 383.566903453482 L 1393 380.8698573788658 L 1394 378.22071640646334 L 1395 375.62548652361494 L 1396 373.09005149339015 L 1397 370.6201595152438 L 1398 368.2214101930103 L 1399 365.89924183979247 L 1400 363.6589191485135 L 1401 361.50552125609437 L 1402 359.4439302283103 L 1403 357.47881999144266 L 1404 355.6146457358064 L 1405 353.85563381518784 L 1406 352.20577216508485 L 1407 350.66880126148067 L 1408 349.24820564063987 L 1409 347.94720599915894 L 1410 346.7687518921795 L 1411 345.7155150463174 L 1412 344.78988330247216 L 1413 343.9939552022436 L 1414 343.329535230234 L 1415 342.79812972301823 L 1416 342.40094345406146 L 1417 342.1388769023218 L 1418 342.01252421073406 L 1419 342.02217183920106 L 1420 342.167797915148 L 1421 342.44907228311035 L 1422 342.8653572532441 L 1423 343.4157090470619 L 1424 344.0988799371154 L 1425 344.9133210757746 L 1426 345.85718600669037 L 1427 346.92833485098015 L 1428 348.1243391586425 L 1429 349.44248741420716 L 1430 350.87979118413386 L 1431 352.4329918920252 L 1432 354.098568206294 L 1433 355.87274402353097 L 1434 357.7514970294813 L 1435 359.7305678182142 L 1436 361.8054695488172 L 1437 363.97149811771254 L 1438 366.22374282354565 L 1439 368.55709750045696 L 1440 370.96627209450435 L 1441 373.4458046569794 L 1442 375.99007372744165 L 1443 378.59331107838386 L 1444 381.2496147926448 L 1445 383.9529626439082 L 1446 386.6972257499674 L 1447 389.4761824677896 L 1448 392.2835324988882 L 1449 395.11291117300874 L 1450 397.9579038777648 L 1451 400.8120606014945 L 1452 403.6689105563733 L 1453 406.521976848633 L 1454 409.3647911626155 L 1455 412.19090842538736 L 1456 414.99392141865434 L 1457 417.7674753048593 L 1458 420.50528203451694 L 1459 423.2011346021385 L 1460 425.84892111841305 L 1461 428.44263866675146 L 1462 430.97640691276536 L 1463 433.44448143584253 L 1464 435.841266752581 L 1465 438.16132900256576 L 1466 440.39940826771493 L 1467 442.55043049728096 L 1468 444.60951901145944 L 1469 446.57200555753275 L 1470 448.43344089347335 L 1471 450.18960487502414 L 1472 451.83651602337784 L 1473 453.37044055176716 L 1474 454.78790083050353 L 1475 456.085683271266 L 1476 457.2608456127744 L 1477 458.31072359132247 L 1478 459.2329369810517 L 1479 460.025394990267 L 1480 460.6863010015668 L 1481 461.2141566450349 L 1482 461.60776519526337 L 1483 461.86623428450184 L 1484 461.98897792578555 L 1485 461.9757178414528 L 1486 461.82648409404067 L 1487 461.5416150181287 L 1488 461.1217564532859 L 1489 460.5678602798581 L 1490 459.8811822609168 L 1491 459.06327919526245 L 1492 458.1160053879354 L 1493 457.0415084462366 L 1494 455.84222441079066 L 1495 454.5208722326865 L 1496 453.08044760922223 L 1497 451.5242161922232 L 1498 449.85570618433565 L 1499 448.078700340077 L 1500 446.19722738978476 L 1501 444.215552905898 L 1502 442.1381696322861 L 1503 439.96978729854345 L 1504 437.71532194235186 L 1505 435.37988476410726 L 1506 432.9687705390868 L 1507 430.4874456134217 L 1508 427.9415355111011 L 1509 425.33681218008894 L 1510 422.6791809064813 L 1511 419.97466692636203 L 1512 417.2294017657222 L 1513 414.4496093393968 L 1514 411.64159184054677 L 1515 408.8117154526729 L 1516 405.9663959165494 L 1517 403.11208398481295 L 1518 400.2552507971665 L 1519 397.402373209367 L 1520 394.55991910924956 L 1521 391.73433275309145 L 1522 388.9320201555435 L 1523 386.1593345662666 L 1524 383.4225620661883 L 1525 380.72790731604954 L 1526 378.0814794895343 L 1527 375.48927842288697 L 1528 372.9571810124093 L 1529 370.4909278906876 L 1530 368.09611041174156 L 1531 365.7781579746144 L 1532 363.54232571413365 L 1533 361.39368258676154 L 1534 359.3370998785318 L 1535 357.37724016113714 L 1536 355.51854672120294 L 1537 353.7652334867087 L 1538 352.1212754734047 L 1539 350.5903997728717" stroke-linecap="round" stroke-linejoin="round" stroke-miterlimit="10" stroke-width="33"/></g></svg>